<svg xmlns="http://www.w3.org/2000/svg" width="520" height="520" viewBox="0 0 520 520" fill="none"><metadata><rdf:RDF xmlns:rdf="http://www.w3.org/1999/02/22-rdf-syntax-ns#" xmlns:dc="http://purl.org/dc/elements/1.1/"><rdf:Description><dc:creator>RealFaviconGenerator</dc:creator><dc:source>https://realfavicongenerator.net</dc:source></rdf:Description></rdf:RDF></metadata><path d="M300.329 6C316.332 6.00005 331.118 14.5439 339.108 28.4087L385.871 109.547C388.157 113.513 389.348 117.918 389.45 122.342L506.551 122.329C516.905 122.328 523.364 133.552 518.161 142.504L374.819 389.137C366.807 402.922 352.066 411.405 336.121 411.405H242.326C237.629 411.405 233.107 410.178 229.152 407.952L171.297 508.214C166.13 517.168 153.207 517.169 148.039 508.216L5.99584 262.172C-1.95814 248.394 -2.00118 231.429 5.88329 217.612L52.4993 135.916C54.8852 131.735 58.2991 128.352 62.3197 126.013L219.056 397.96C221.506 402.21 225.02 405.627 229.152 407.952L385.863 136.379C388.366 132.042 389.56 127.18 389.449 122.341L75.8204 122.371C70.9938 122.371 66.3509 123.668 62.3197 126.013L4.75559 26.1325C-0.403694 17.1809 6.05688 6.0001 16.3888 6H300.329Z" fill="#EEEEEE"></path></svg>